<?xml version="1.0" encoding="utf-8" standalone="no"?>
<!DOCTYPE svg PUBLIC "-//W3C//DTD SVG 1.1//EN"
  "http://www.w3.org/Graphics/SVG/1.1/DTD/svg11.dtd">
<svg xmlns:xlink="http://www.w3.org/1999/xlink" width="504pt" height="288pt" viewBox="0 0 504 288" xmlns="http://www.w3.org/2000/svg" version="1.1">
 <metadata>
  <rdf:RDF xmlns:dc="http://purl.org/dc/elements/1.1/" xmlns:cc="http://creativecommons.org/ns#" xmlns:rdf="http://www.w3.org/1999/02/22-rdf-syntax-ns#">
   <cc:Work>
    <dc:type rdf:resource="http://purl.org/dc/dcmitype/StillImage"/>
    <dc:format>image/svg+xml</dc:format>
    <dc:creator>
     <cc:Agent>
      <dc:title>paper-figure-creation</dc:title>
     </cc:Agent>
    </dc:creator>
   </cc:Work>
  </rdf:RDF>
 </metadata>
 <defs>
  <style type="text/css">*{stroke-linejoin: round; stroke-linecap: butt}</style>
 </defs>
 <g id="figure_1">
  <g id="patch_1">
   <path d="M 0 288 
L 504 288 
L 504 0 
L 0 0 
z
" style="fill: #ffffff"/>
  </g>
  <g id="axes_1">
   <g id="patch_2">
    <path d="M 43.9866 118.944 
Q 69.7347 129.96 94.454892 140.536222 
" clip-path="url(#pc241773888)" style="fill: none; stroke: #64717a; stroke-linecap: round"/>
    <path d="M 92.142205 137.806483 
L 94.454892 140.536222 
L 90.883488 140.748528 
z
" clip-path="url(#pc241773888)" style="fill: #64717a; stroke: #64717a; stroke-linecap: round"/>
   </g>
   <g id="patch_3">
    <path d="M 94.7142 118.944 
Q 95.0985 129.96 95.44382 139.858646 
" clip-path="url(#pc241773888)" style="fill: none; stroke: #64717a; stroke-linecap: round"/>
    <path d="M 96.931282 136.604808 
L 95.44382 139.858646 
L 93.733227 136.716374 
z
" clip-path="url(#pc241773888)" style="fill: #64717a; stroke: #64717a; stroke-linecap: round"/>
   </g>
   <g id="patch_4">
    <path d="M 145.4418 118.944 
Q 120.4623 129.96 96.505775 140.524866 
" clip-path="url(#pc241773888)" style="fill: none; stroke: #64717a; stroke-linecap: round"/>
    <path d="M 100.079311 140.697609 
L 96.505775 140.524866 
L 98.788091 137.769683 
z
" clip-path="url(#pc241773888)" style="fill: #64717a; stroke: #64717a; stroke-linecap: round"/>
   </g>
   <g id="patch_5">
    <path d="M 95.4828 168.8832 
Q 95.0985 179.1648 94.75596 188.329146 
" clip-path="url(#pc241773888)" style="fill: none; stroke: #007d8a; stroke-linecap: round"/>
    <path d="M 96.474368 185.191141 
L 94.75596 188.329146 
L 93.276601 185.071617 
z
" clip-path="url(#pc241773888)" style="fill: #007d8a; stroke: #007d8a; stroke-linecap: round"/>
   </g>
   <g id="patch_6">
    <path d="M 26.00136 118.944 
L 61.97184 118.944 
Q 63.2016 118.944 63.2016 117.76896 
L 63.2016 96.61824 
Q 63.2016 95.4432 61.97184 95.4432 
L 26.00136 95.4432 
Q 24.7716 95.4432 24.7716 96.61824 
L 24.7716 117.76896 
Q 24.7716 118.944 26.00136 118.944 
z
" clip-path="url(#pc241773888)" style="fill: #ffffff; stroke: #64717a; stroke-width: 0.8; stroke-linejoin: miter"/>
   </g>
   <g id="patch_7">
    <path d="M 76.72896 118.944 
L 112.69944 118.944 
Q 113.9292 118.944 113.9292 117.76896 
L 113.9292 96.61824 
Q 113.9292 95.4432 112.69944 95.4432 
L 76.72896 95.4432 
Q 75.4992 95.4432 75.4992 96.61824 
L 75.4992 117.76896 
Q 75.4992 118.944 76.72896 118.944 
z
" clip-path="url(#pc241773888)" style="fill: #ffffff; stroke: #64717a; stroke-width: 0.8; stroke-linejoin: miter"/>
   </g>
   <g id="patch_8">
    <path d="M 127.45656 118.944 
L 163.42704 118.944 
Q 164.6568 118.944 164.6568 117.76896 
L 164.6568 96.61824 
Q 164.6568 95.4432 163.42704 95.4432 
L 127.45656 95.4432 
Q 126.2268 95.4432 126.2268 96.61824 
L 126.2268 117.76896 
Q 126.2268 118.944 127.45656 118.944 
z
" clip-path="url(#pc241773888)" style="fill: #ffffff; stroke: #64717a; stroke-width: 0.8; stroke-linejoin: miter"/>
   </g>
   <g id="patch_9">
    <path d="M 42.91056 168.8832 
L 148.05504 168.8832 
Q 149.2848 168.8832 149.2848 167.70816 
L 149.2848 142.15104 
Q 149.2848 140.976 148.05504 140.976 
L 42.91056 140.976 
Q 41.6808 140.976 41.6808 142.15104 
L 41.6808 167.70816 
Q 41.6808 168.8832 42.91056 168.8832 
z
" clip-path="url(#pc241773888)" style="fill: #e6f2f3; stroke: #007d8a; stroke-width: 1.1; stroke-linejoin: miter"/>
   </g>
   <g id="text_1">
    <text style="font-size: 8px; font-family: 'DejaVu Sans'; text-anchor: start; fill: #64717a" x="20.16" y="91.24035" transform="rotate(-0 20.16 91.24035)">Illustrative source sentence</text>
   </g>
   <g id="node-label:t1">
    <text style="font-size: 8.5px; font-family: 'DejaVu Sans'; text-anchor: middle; fill: #17232b" x="43.9866" y="109.539069" transform="rotate(-0 43.9866 109.539069)">The</text>
   </g>
   <g id="node-label:t2">
    <text style="font-size: 8.5px; font-family: 'DejaVu Sans'; text-anchor: middle; fill: #17232b" x="94.7142" y="109.539069" transform="rotate(-0 94.7142 109.539069)">cat</text>
   </g>
   <g id="node-label:t3">
    <text style="font-size: 8.5px; font-family: 'DejaVu Sans'; text-anchor: middle; fill: #17232b" x="145.4418" y="109.539069" transform="rotate(-0 145.4418 109.539069)">sat</text>
   </g>
   <g id="node-label:attn">
    <text style="font-weight: 700; font-size: 8.5px; font-family: 'DejaVu Sans'; text-anchor: middle; fill: #17232b" x="95.4828" y="157.275069" transform="rotate(-0 95.4828 157.275069)">Self-attention</text>
   </g>
   <g id="node-label:out">
    <text style="font-size: 8.5px; font-family: 'DejaVu Sans'; text-anchor: middle; fill: #17232b" x="94.7142" y="203.542269" transform="rotate(-0 94.7142 203.542269)">Context for each token</text>
   </g>
   <g id="text_2">
    <text style="font-size: 8px; font-family: 'DejaVu Sans'; text-anchor: start; fill: #64717a" x="20.16" y="232.24515" transform="rotate(-0 20.16 232.24515)">Encoder connectivity, not measured weights.</text>
   </g>
   <g id="text_3">
    <text style="font-weight: 700; font-size: 9.5px; font-family: 'DejaVu Sans'; text-anchor: start; fill: #17232b" x="20.16" y="61.88" transform="rotate(-0 20.16 61.88)">a  Tokens share context</text>
   </g>
  </g>
  <g id="axes_2">
   <g id="patch_10">
    <path d="M 303.56 221.76 
L 486.36 221.76 
L 486.36 74.88 
L 303.56 74.88 
z
" style="fill: #ffffff"/>
   </g>
   <g id="matplotlib.axis_1">
    <g id="xtick_1">
     <g id="line2d_1">
      <path d="M 303.56 221.76 
L 303.56 74.88 
" clip-path="url(#pbccbc3be3f)" style="fill: none; stroke: #dce2e5; stroke-width: 0.65; stroke-linecap: square"/>
     </g>
     <g id="line2d_2">
      <defs>
       <path id="m048f6dcdb6" d="M 0 0 
L 0 3 
" style="stroke: #64717a; stroke-width: 0.6"/>
      </defs>
      <g>
       <use xlink:href="#m048f6dcdb6" x="303.56" y="221.76" style="fill: #64717a; stroke: #64717a; stroke-width: 0.6"/>
      </g>
     </g>
     <g id="text_4">
      <text style="font-size: 8px; font-family: 'DejaVu Sans'; text-anchor: middle; fill: #64717a" x="303.56" y="234.33875" transform="rotate(-0 303.56 234.33875)">23</text>
     </g>
    </g>
    <g id="xtick_2">
     <g id="line2d_3">
      <path d="M 331.683077 221.76 
L 331.683077 74.88 
" clip-path="url(#pbccbc3be3f)" style="fill: none; stroke: #dce2e5; stroke-width: 0.65; stroke-linecap: square"/>
     </g>
     <g id="line2d_4">
      <g>
       <use xlink:href="#m048f6dcdb6" x="331.683077" y="221.76" style="fill: #64717a; stroke: #64717a; stroke-width: 0.6"/>
      </g>
     </g>
     <g id="text_5">
      <text style="font-size: 8px; font-family: 'DejaVu Sans'; text-anchor: middle; fill: #64717a" x="331.683077" y="234.33875" transform="rotate(-0 331.683077 234.33875)">24</text>
     </g>
    </g>
    <g id="xtick_3">
     <g id="line2d_5">
      <path d="M 359.806154 221.76 
L 359.806154 74.88 
" clip-path="url(#pbccbc3be3f)" style="fill: none; stroke: #dce2e5; stroke-width: 0.65; stroke-linecap: square"/>
     </g>
     <g id="line2d_6">
      <g>
       <use xlink:href="#m048f6dcdb6" x="359.806154" y="221.76" style="fill: #64717a; stroke: #64717a; stroke-width: 0.6"/>
      </g>
     </g>
     <g id="text_6">
      <text style="font-size: 8px; font-family: 'DejaVu Sans'; text-anchor: middle; fill: #64717a" x="359.806154" y="234.33875" transform="rotate(-0 359.806154 234.33875)">25</text>
     </g>
    </g>
    <g id="xtick_4">
     <g id="line2d_7">
      <path d="M 387.929231 221.76 
L 387.929231 74.88 
" clip-path="url(#pbccbc3be3f)" style="fill: none; stroke: #dce2e5; stroke-width: 0.65; stroke-linecap: square"/>
     </g>
     <g id="line2d_8">
      <g>
       <use xlink:href="#m048f6dcdb6" x="387.929231" y="221.76" style="fill: #64717a; stroke: #64717a; stroke-width: 0.6"/>
      </g>
     </g>
     <g id="text_7">
      <text style="font-size: 8px; font-family: 'DejaVu Sans'; text-anchor: middle; fill: #64717a" x="387.929231" y="234.33875" transform="rotate(-0 387.929231 234.33875)">26</text>
     </g>
    </g>
    <g id="xtick_5">
     <g id="line2d_9">
      <path d="M 416.052308 221.76 
L 416.052308 74.88 
" clip-path="url(#pbccbc3be3f)" style="fill: none; stroke: #dce2e5; stroke-width: 0.65; stroke-linecap: square"/>
     </g>
     <g id="line2d_10">
      <g>
       <use xlink:href="#m048f6dcdb6" x="416.052308" y="221.76" style="fill: #64717a; stroke: #64717a; stroke-width: 0.6"/>
      </g>
     </g>
     <g id="text_8">
      <text style="font-size: 8px; font-family: 'DejaVu Sans'; text-anchor: middle; fill: #64717a" x="416.052308" y="234.33875" transform="rotate(-0 416.052308 234.33875)">27</text>
     </g>
    </g>
    <g id="xtick_6">
     <g id="line2d_11">
      <path d="M 444.175385 221.76 
L 444.175385 74.88 
" clip-path="url(#pbccbc3be3f)" style="fill: none; stroke: #dce2e5; stroke-width: 0.65; stroke-linecap: square"/>
     </g>
     <g id="line2d_12">
      <g>
       <use xlink:href="#m048f6dcdb6" x="444.175385" y="221.76" style="fill: #64717a; stroke: #64717a; stroke-width: 0.6"/>
      </g>
     </g>
     <g id="text_9">
      <text style="font-size: 8px; font-family: 'DejaVu Sans'; text-anchor: middle; fill: #64717a" x="444.175385" y="234.33875" transform="rotate(-0 444.175385 234.33875)">28</text>
     </g>
    </g>
    <g id="xtick_7">
     <g id="line2d_13">
      <path d="M 472.298462 221.76 
L 472.298462 74.88 
" clip-path="url(#pbccbc3be3f)" style="fill: none; stroke: #dce2e5; stroke-width: 0.65; stroke-linecap: square"/>
     </g>
     <g id="line2d_14">
      <g>
       <use xlink:href="#m048f6dcdb6" x="472.298462" y="221.76" style="fill: #64717a; stroke: #64717a; stroke-width: 0.6"/>
      </g>
     </g>
     <g id="text_10">
      <text style="font-size: 8px; font-family: 'DejaVu Sans'; text-anchor: middle; fill: #64717a" x="472.298462" y="234.33875" transform="rotate(-0 472.298462 234.33875)">29</text>
     </g>
    </g>
    <g id="text_11">
     <text style="font-size: 8.5px; font-family: 'DejaVu Sans'; text-anchor: middle; fill: #17232b" x="394.96" y="248.461172" transform="rotate(-0 394.96 248.461172)">BLEU ↑</text>
    </g>
   </g>
   <g id="matplotlib.axis_2">
    <g id="ytick_1">
     <g id="line2d_15">
      <defs>
       <path id="ma2cd85d77a" d="M 0 0 
L -3 0 
" style="stroke: #17232b; stroke-width: 0.6"/>
      </defs>
      <g>
       <use xlink:href="#ma2cd85d77a" x="303.56" y="85.76" style="fill: #17232b; stroke: #17232b; stroke-width: 0.6"/>
      </g>
     </g>
     <g id="text_12">
      <text style="font-size: 8px; font-family: 'DejaVu Sans'; text-anchor: end; fill: #17232b" x="295.56" y="88.799375" transform="rotate(-0 295.56 88.799375)">ByteNet</text>
     </g>
    </g>
    <g id="ytick_2">
     <g id="line2d_16">
      <g>
       <use xlink:href="#ma2cd85d77a" x="303.56" y="103.893333" style="fill: #17232b; stroke: #17232b; stroke-width: 0.6"/>
      </g>
     </g>
     <g id="text_13">
      <text style="font-size: 8px; font-family: 'DejaVu Sans'; text-anchor: end; fill: #17232b" x="295.56" y="106.932708" transform="rotate(-0 295.56 106.932708)">GNMT + RL</text>
     </g>
    </g>
    <g id="ytick_3">
     <g id="line2d_17">
      <g>
       <use xlink:href="#ma2cd85d77a" x="303.56" y="122.026667" style="fill: #17232b; stroke: #17232b; stroke-width: 0.6"/>
      </g>
     </g>
     <g id="text_14">
      <text style="font-size: 8px; font-family: 'DejaVu Sans'; text-anchor: end; fill: #17232b" x="295.56" y="125.066042" transform="rotate(-0 295.56 125.066042)">ConvS2S</text>
     </g>
    </g>
    <g id="ytick_4">
     <g id="line2d_18">
      <g>
       <use xlink:href="#ma2cd85d77a" x="303.56" y="140.16" style="fill: #17232b; stroke: #17232b; stroke-width: 0.6"/>
      </g>
     </g>
     <g id="text_15">
      <text style="font-size: 8px; font-family: 'DejaVu Sans'; text-anchor: end; fill: #17232b" x="295.56" y="143.199375" transform="rotate(-0 295.56 143.199375)">MoE</text>
     </g>
    </g>
    <g id="ytick_5">
     <g id="line2d_19">
      <g>
       <use xlink:href="#ma2cd85d77a" x="303.56" y="158.293333" style="fill: #17232b; stroke: #17232b; stroke-width: 0.6"/>
      </g>
     </g>
     <g id="text_16">
      <text style="font-size: 8px; font-family: 'DejaVu Sans'; text-anchor: end; fill: #17232b" x="295.56" y="161.332708" transform="rotate(-0 295.56 161.332708)">GNMT + RL (ensemble)</text>
     </g>
    </g>
    <g id="ytick_6">
     <g id="line2d_20">
      <g>
       <use xlink:href="#ma2cd85d77a" x="303.56" y="176.426667" style="fill: #17232b; stroke: #17232b; stroke-width: 0.6"/>
      </g>
     </g>
     <g id="text_17">
      <text style="font-size: 8px; font-family: 'DejaVu Sans'; text-anchor: end; fill: #17232b" x="295.56" y="179.466042" transform="rotate(-0 295.56 179.466042)">ConvS2S (ensemble)</text>
     </g>
    </g>
    <g id="ytick_7">
     <g id="line2d_21">
      <g>
       <use xlink:href="#ma2cd85d77a" x="303.56" y="194.56" style="fill: #17232b; stroke: #17232b; stroke-width: 0.6"/>
      </g>
     </g>
     <g id="text_18">
      <text style="font-size: 8px; font-family: 'DejaVu Sans'; text-anchor: end; fill: #17232b" x="295.56" y="197.599375" transform="rotate(-0 295.56 197.599375)">Transformer base</text>
     </g>
    </g>
    <g id="ytick_8">
     <g id="line2d_22">
      <g>
       <use xlink:href="#ma2cd85d77a" x="303.56" y="212.693333" style="fill: #17232b; stroke: #17232b; stroke-width: 0.6"/>
      </g>
     </g>
     <g id="text_19">
      <text style="font-size: 8px; font-family: 'DejaVu Sans'; text-anchor: end; fill: #17232b" x="295.56" y="215.732708" transform="rotate(-0 295.56 215.732708)">Transformer big</text>
     </g>
    </g>
   </g>
   <g id="patch_11">
    <path d="M 303.56 221.76 
L 486.36 221.76 
" style="fill: none; stroke: #dce2e5; stroke-width: 0.9; stroke-linejoin: miter; stroke-linecap: square"/>
   </g>
   <g id="text_20">
    <text style="font-size: 8px; font-family: 'DejaVu Sans'; text-anchor: start; fill: #667580" x="328.652308" y="87.9675" transform="rotate(-0 328.652308 87.9675)">23.75</text>
   </g>
   <g id="text_21">
    <text style="font-size: 8px; font-family: 'DejaVu Sans'; text-anchor: start; fill: #667580" x="352.556923" y="106.100833" transform="rotate(-0 352.556923 106.100833)">24.60</text>
   </g>
   <g id="text_22">
    <text style="font-size: 8px; font-family: 'DejaVu Sans'; text-anchor: start; fill: #667580" x="368.305846" y="124.234167" transform="rotate(-0 368.305846 124.234167)">25.16</text>
   </g>
   <g id="text_23">
    <text style="font-size: 8px; font-family: 'DejaVu Sans'; text-anchor: start; fill: #667580" x="392.772923" y="142.3675" transform="rotate(-0 392.772923 142.3675)">26.03</text>
   </g>
   <g id="text_24">
    <text style="font-size: 8px; font-family: 'DejaVu Sans'; text-anchor: start; fill: #667580" x="400.366154" y="160.500833" transform="rotate(-0 400.366154 160.500833)">26.30</text>
   </g>
   <g id="text_25">
    <text style="font-size: 8px; font-family: 'DejaVu Sans'; text-anchor: start; fill: #667580" x="402.053538" y="178.634167" transform="rotate(-0 402.053538 178.634167)">26.36</text>
   </g>
   <g id="text_26">
    <text style="font-size: 8px; font-family: 'DejaVu Sans'; text-anchor: start; fill: #667580" x="428.489231" y="196.7675" transform="rotate(-0 428.489231 196.7675)">27.30</text>
   </g>
   <g id="text_27">
    <text style="font-size: 8px; font-family: 'DejaVu Sans'; text-anchor: start; fill: #667580" x="459.424615" y="214.900833" transform="rotate(-0 459.424615 214.900833)">28.40</text>
   </g>
   <g id="text_28">
    <text style="font-weight: 700; font-size: 9.5px; font-family: 'DejaVu Sans'; text-anchor: start; fill: #17232b" x="303.56" y="61.88" transform="rotate(-0 303.56 61.88)">b  Reported translation quality</text>
   </g>
   <g id="line2d_23">
    <defs>
     <path id="m4649d78548" d="M 0 2.5 
C 0.663008 2.5 1.29895 2.236584 1.767767 1.767767 
C 2.236584 1.29895 2.5 0.663008 2.5 0 
C 2.5 -0.663008 2.236584 -1.29895 1.767767 -1.767767 
C 1.29895 -2.236584 0.663008 -2.5 0 -2.5 
C -0.663008 -2.5 -1.29895 -2.236584 -1.767767 -1.767767 
C -2.236584 -1.29895 -2.5 -0.663008 -2.5 0 
C -2.5 0.663008 -2.236584 1.29895 -1.767767 1.767767 
C -1.29895 2.236584 -0.663008 2.5 0 2.5 
z
" style="stroke: #ffffff; stroke-width: 0.45"/>
    </defs>
    <g clip-path="url(#pbccbc3be3f)">
     <use xlink:href="#m4649d78548" x="324.652308" y="85.76" style="fill: #667580; stroke: #ffffff; stroke-width: 0.45"/>
    </g>
   </g>
   <g id="line2d_24">
    <g clip-path="url(#pbccbc3be3f)">
     <use xlink:href="#m4649d78548" x="348.556923" y="103.893333" style="fill: #667580; stroke: #ffffff; stroke-width: 0.45"/>
    </g>
   </g>
   <g id="line2d_25">
    <g clip-path="url(#pbccbc3be3f)">
     <use xlink:href="#m4649d78548" x="364.305846" y="122.026667" style="fill: #667580; stroke: #ffffff; stroke-width: 0.45"/>
    </g>
   </g>
   <g id="line2d_26">
    <g clip-path="url(#pbccbc3be3f)">
     <use xlink:href="#m4649d78548" x="388.772923" y="140.16" style="fill: #667580; stroke: #ffffff; stroke-width: 0.45"/>
    </g>
   </g>
   <g id="line2d_27">
    <g clip-path="url(#pbccbc3be3f)">
     <use xlink:href="#m4649d78548" x="396.366154" y="158.293333" style="fill: #667580; stroke: #ffffff; stroke-width: 0.45"/>
    </g>
   </g>
   <g id="line2d_28">
    <g clip-path="url(#pbccbc3be3f)">
     <use xlink:href="#m4649d78548" x="398.053538" y="176.426667" style="fill: #667580; stroke: #ffffff; stroke-width: 0.45"/>
    </g>
   </g>
   <g id="line2d_29">
    <defs>
     <path id="ma5b84ecfee" d="M 0 2.85 
C 0.755829 2.85 1.480803 2.549706 2.015254 2.015254 
C 2.549706 1.480803 2.85 0.755829 2.85 0 
C 2.85 -0.755829 2.549706 -1.480803 2.015254 -2.015254 
C 1.480803 -2.549706 0.755829 -2.85 0 -2.85 
C -0.755829 -2.85 -1.480803 -2.549706 -2.015254 -2.015254 
C -2.549706 -1.480803 -2.85 -0.755829 -2.85 0 
C -2.85 0.755829 -2.549706 1.480803 -2.015254 2.015254 
C -1.480803 2.549706 -0.755829 2.85 0 2.85 
z
" style="stroke: #ffffff; stroke-width: 0.45"/>
    </defs>
    <g clip-path="url(#pbccbc3be3f)">
     <use xlink:href="#ma5b84ecfee" x="424.489231" y="194.56" style="fill: #007d8a; stroke: #ffffff; stroke-width: 0.45"/>
    </g>
   </g>
   <g id="line2d_30">
    <g clip-path="url(#pbccbc3be3f)">
     <use xlink:href="#ma5b84ecfee" x="455.424615" y="212.693333" style="fill: #007d8a; stroke: #ffffff; stroke-width: 0.45"/>
    </g>
   </g>
  </g>
  <g id="line2d_31">
   <path d="M 183.96 230.4 
L 183.96 57.6 
" style="fill: none; stroke: #dce2e5; stroke-width: 0.7; stroke-linecap: square"/>
  </g>
  <g id="text_29">
   <text style="font-weight: 700; font-size: 12px; font-family: 'DejaVu Sans'; text-anchor: start; fill: #17232b" x="17.64" y="24.958125" transform="rotate(-0 17.64 24.958125)">Transformer: attention-based translation</text>
  </g>
  <g id="text_30">
   <text style="font-size: 8px; font-family: 'DejaVu Sans'; text-anchor: start; fill: #64717a" x="17.64" y="46.97475" transform="rotate(-0 17.64 46.97475)">WMT 2014 English–German · newstest2014 · reported systems</text>
  </g>
  <g id="text_31">
   <text style="font-size: 8px; font-family: 'DejaVu Sans'; text-anchor: start; fill: #64717a" x="17.64" y="279.13625" transform="rotate(-0 17.64 279.13625)">Table 2: all EN–DE entries are shown. System budgets differ; no equal-compute claim.</text>
  </g>
 </g>
 <defs>
  <clipPath id="pc241773888">
   <rect x="20.16" y="74.88" width="153.72" height="146.88"/>
  </clipPath>
  <clipPath id="pbccbc3be3f">
   <rect x="303.56" y="74.88" width="182.8" height="146.88"/>
  </clipPath>
 </defs>
</svg>
